<svg xmlns="http://www.w3.org/2000/svg" width="1100" height="680" viewBox="0 0 1100 680">
<rect width="100%" height="100%" fill="#ffffff"/>
<text x="90" y="35" font-family="Arial" font-size="24" font-weight="700">SER comparison on 0_0_0_10_14_8</text>
<text x="90" y="58" font-family="Arial" font-size="13" fill="#555">Payload raw FFT-bin SER, lower is better</text>
<line x1="90" y1="590.00" x2="840" y2="590.00" stroke="#e6e6e6" stroke-width="1"/>
<text x="78" y="594.00" text-anchor="end" font-family="Arial" font-size="12" fill="#555">0.00</text>
<line x1="90" y1="486.00" x2="840" y2="486.00" stroke="#e6e6e6" stroke-width="1"/>
<text x="78" y="490.00" text-anchor="end" font-family="Arial" font-size="12" fill="#555">0.11</text>
<line x1="90" y1="382.00" x2="840" y2="382.00" stroke="#e6e6e6" stroke-width="1"/>
<text x="78" y="386.00" text-anchor="end" font-family="Arial" font-size="12" fill="#555">0.22</text>
<line x1="90" y1="278.00" x2="840" y2="278.00" stroke="#e6e6e6" stroke-width="1"/>
<text x="78" y="282.00" text-anchor="end" font-family="Arial" font-size="12" fill="#555">0.33</text>
<line x1="90" y1="174.00" x2="840" y2="174.00" stroke="#e6e6e6" stroke-width="1"/>
<text x="78" y="178.00" text-anchor="end" font-family="Arial" font-size="12" fill="#555">0.44</text>
<line x1="90" y1="70.00" x2="840" y2="70.00" stroke="#e6e6e6" stroke-width="1"/>
<text x="78" y="74.00" text-anchor="end" font-family="Arial" font-size="12" fill="#555">0.55</text>
<line x1="90" y1="70" x2="90" y2="590" stroke="#333" stroke-width="1.2"/>
<line x1="90" y1="590" x2="840" y2="590" stroke="#333" stroke-width="1.2"/>
<line x1="90.00" y1="590" x2="90.00" y2="596" stroke="#333" stroke-width="1"/>
<text x="90.00" y="616" text-anchor="middle" font-family="Arial" font-size="12" fill="#333">-24</text>
<line x1="465.00" y1="590" x2="465.00" y2="596" stroke="#333" stroke-width="1"/>
<text x="465.00" y="616" text-anchor="middle" font-family="Arial" font-size="12" fill="#333">-23</text>
<line x1="840.00" y1="590" x2="840.00" y2="596" stroke="#333" stroke-width="1"/>
<text x="840.00" y="616" text-anchor="middle" font-family="Arial" font-size="12" fill="#333">-22</text>
<text x="465.00" y="656" text-anchor="middle" font-family="Arial" font-size="14" fill="#333">SNR (dB)</text>
<text x="24" y="330.00" transform="rotate(-90 24 330.00)" text-anchor="middle" font-family="Arial" font-size="14" fill="#333">SER</text>
<polyline points="90.00,490.95 465.00,568.99 840.00,590.00" fill="none" stroke="#4C78A8" stroke-width="2.7" stroke-linejoin="round" stroke-linecap="round"/>
<circle cx="90.00" cy="490.95" r="3.5" fill="#4C78A8"/>
<circle cx="465.00" cy="568.99" r="3.5" fill="#4C78A8"/>
<circle cx="840.00" cy="590.00" r="3.5" fill="#4C78A8"/>
<polyline points="90.00,412.91 465.00,496.96 840.00,565.99" fill="none" stroke="#F58518" stroke-width="2.7" stroke-linejoin="round" stroke-linecap="round"/>
<circle cx="90.00" cy="412.91" r="3.5" fill="#F58518"/>
<circle cx="465.00" cy="496.96" r="3.5" fill="#F58518"/>
<circle cx="840.00" cy="565.99" r="3.5" fill="#F58518"/>
<polyline points="90.00,82.76 465.00,220.82 840.00,502.96" fill="none" stroke="#54A24B" stroke-width="2.7" stroke-linejoin="round" stroke-linecap="round"/>
<circle cx="90.00" cy="82.76" r="3.5" fill="#54A24B"/>
<circle cx="465.00" cy="220.82" r="3.5" fill="#54A24B"/>
<circle cx="840.00" cy="502.96" r="3.5" fill="#54A24B"/>
<polyline points="90.00,331.88 465.00,421.92 840.00,466.94" fill="none" stroke="#E45756" stroke-width="2.7" stroke-linejoin="round" stroke-linecap="round"/>
<circle cx="90.00" cy="331.88" r="3.5" fill="#E45756"/>
<circle cx="465.00" cy="421.92" r="3.5" fill="#E45756"/>
<circle cx="840.00" cy="466.94" r="3.5" fill="#E45756"/>
<text x="875" y="67" font-family="Arial" font-size="14" font-weight="700" fill="#333">Methods</text>
<line x1="875" y1="85" x2="901" y2="85" stroke="#4C78A8" stroke-width="3"/>
<circle cx="888" cy="85" r="3.5" fill="#4C78A8"/>
<text x="911" y="89" font-family="Arial" font-size="13" fill="#333">Savaux oversampled</text>
<line x1="875" y1="113" x2="901" y2="113" stroke="#F58518" stroke-width="3"/>
<circle cx="888" cy="113" r="3.5" fill="#F58518"/>
<text x="911" y="117" font-family="Arial" font-size="13" fill="#333">LoRaTrimmer</text>
<line x1="875" y1="141" x2="901" y2="141" stroke="#54A24B" stroke-width="3"/>
<circle cx="888" cy="141" r="3.5" fill="#54A24B"/>
<text x="911" y="145" font-family="Arial" font-size="13" fill="#333">Sym-FEC</text>
<line x1="875" y1="169" x2="901" y2="169" stroke="#E45756" stroke-width="3"/>
<circle cx="888" cy="169" r="3.5" fill="#E45756"/>
<text x="911" y="173" font-family="Arial" font-size="13" fill="#333">UniChirp</text>
</svg>